PathFileType	4	(X/Y/Z)	 s02c0301.trc
DataRate	CameraRate	NumFrames	NumMarkers	Units	OrigDataRate	OrigDataStartFrame	OrigNumFrames
200	200	4	51	mm	200	751	2000
Frame#	Time	racr			lacr			c7			jug			rlel			rdr			llel			ldr			s2			lic			ric			lasi			rasi			rpsi			lpsi			rgt			lgt			rth1			rth2			rth3			rth4			rlfc			rmfc			rsh1			rsh2			rsh3			rsh4			rlmal			rmmal			rcal			rtoe			rmt5			rmt1			lth1			lth2			lth4			lth3			llfc			lmfc			lsh1			lsh2			lsh3			lsh4			llmal			lmmal			lcal			ltoe			lmt5			SBIKE			LBIKE			RBIKE			
		X1	Y1	Z1	X2	Y2	Z2	X3	Y3	Z3	X4	Y4	Z4	X5	Y5	Z5	X6	Y6	Z6	X7	Y7	Z7	X8	Y8	Z8	X9	Y9	Z9	X10	Y10	Z10	X11	Y11	Z11	X12	Y12	Z12	X13	Y13	Z13	X14	Y14	Z14	X15	Y15	Z15	X16	Y16	Z16	X17	Y17	Z17	X18	Y18	Z18	X19	Y19	Z19	X20	Y20	Z20	X21	Y21	Z21	X22	Y22	Z22	X23	Y23	Z23	X24	Y24	Z24	X25	Y25	Z25	X26	Y26	Z26	X27	Y27	Z27	X28	Y28	Z28	X29	Y29	Z29	X30	Y30	Z30	X31	Y31	Z31	X32	Y32	Z32	X33	Y33	Z33	X34	Y34	Z34	X35	Y35	Z35	X36	Y36	Z36	X37	Y37	Z37	X38	Y38	Z38	X39	Y39	Z39	X40	Y40	Z40	X41	Y41	Z41	X42	Y42	Z42	X43	Y43	Z43	X44	Y44	Z44	X45	Y45	Z45	X46	Y46	Z46	X47	Y47	Z47	X48	Y48	Z48	X49	Y49	Z49	X50	Y50	Z50	X51	Y51	Z51	
751	3.7550	701.806201	1228.027937	-51.014888	774.443842	1249.991151	-398.889672	751.518430	1279.223266	-225.982246	668.949066	1163.512707	-238.945387	574.126925	988.924103	-32.162423	720.741922	858.663024	-105.530549	664.457289	1048.932042	-580.620685	732.338856	851.730545	-502.236625	218.795322	1201.875290	-341.366152	374.385599	1181.813957	-459.830465	312.910321	1185.500180	-181.893150	402.034262	1133.963620	-433.947904	363.360675	1146.557070	-200.098315	246.369230	1261.648949	-293.473673	275.399826	1270.283138	-374.191312	279.170031	1111.928134	-151.375830	303.545214	1096.012432	-507.898385	357.193600	1057.442535	-130.218508	433.114900	1012.800626	-123.878513	476.016238	945.799878	-91.306411	457.103431	1031.633306	-146.522204	556.621226	815.282552	-116.309430	563.815820	801.458247	-229.445063	518.752105	706.974964	-108.748567	495.638825	624.818073	-135.651485	436.780731	562.542694	-142.984802	514.216844	622.063045	-170.788562	368.068581	474.327918	-159.218633	386.552255	490.268208	-238.778729	291.118061	439.330998	-206.501932	570.103491	383.577404	-174.614366	454.517976	384.595567	-124.933846	493.282322	398.291271	-230.020116	385.830525	969.622272	-501.310266	434.986229	897.985250	-494.634292	465.094555	909.908182	-478.539616	441.692475	809.435760	-495.102981	460.792954	709.899087	-477.565012	448.201306	679.729217	-375.332498	397.088895	623.268396	-502.773930	353.817098	549.313353	-490.476746	277.257771	502.154262	-498.979395	366.590018	538.881848	-452.749559	186.178977	427.843822	-494.582788	196.617815	414.671258	-415.413211	113.720459	450.265445	-451.947018	232.434205	188.327080	-431.576617	165.943277	266.121678	-499.934419	-124.807714	874.453933	-304.682936	37.491837	88.206454	-513.935815	34.101085	83.432398	-113.793891	
752	3.7600	702.332296	1225.170461	-51.451734	773.244865	1251.918686	-399.553615	751.172797	1279.085063	-226.477368	669.380355	1163.065661	-240.327027	572.608184	987.426584	-32.447304	720.479587	858.771299	-105.888876	665.477218	1049.026964	-580.577595	732.246888	851.482806	-502.188035	220.092824	1199.132828	-341.745065	373.632595	1182.316336	-459.208991	313.020761	1181.205227	-181.060101	401.681822	1134.095386	-434.168841	363.780923	1142.995864	-200.083024	245.741014	1260.025946	-291.387335	274.648291	1269.334230	-371.682510	278.186444	1107.498634	-151.506419	305.224458	1096.043542	-509.008657	355.928941	1052.308141	-130.518998	431.489120	1007.049306	-123.936547	473.942903	939.200785	-92.751685	455.754118	1025.781480	-146.366515	553.120501	809.084286	-116.977256	562.412955	794.317901	-228.367696	515.489165	701.167275	-109.147115	494.175972	618.083066	-134.493661	436.188111	555.041550	-142.807146	513.962996	614.633536	-169.040508	370.617439	463.981817	-159.887872	389.461966	479.864793	-238.874254	293.883536	428.626859	-207.182921	572.644983	372.618455	-174.580466	457.148142	374.174110	-125.382838	496.467534	387.488708	-229.758651	388.964610	970.832814	-501.592724	438.888314	899.746361	-494.128530	468.729776	912.066389	-477.920988	446.941518	811.299432	-494.672178	467.317429	712.225042	-476.900804	454.799014	681.722565	-374.660144	403.260917	626.179854	-501.876150	358.270610	553.136927	-489.559416	280.809635	507.750038	-498.292912	370.554480	542.658940	-451.737705	187.436930	436.646978	-494.996013	197.176922	423.520739	-415.474745	115.108418	460.649382	-452.929589	228.609307	196.654547	-431.096738	164.003595	275.357935	-499.727860	-124.988049	874.344205	-305.283454	37.470796	88.060097	-513.897321	34.086709	83.415247	-113.839970	
753	3.7650	702.983732	1222.258817	-52.153701	772.025532	1253.780159	-400.374839	750.837260	1279.072352	-227.153834	669.859214	1162.663697	-241.884817	571.271804	985.752645	-32.409411	720.166152	858.758772	-106.041894	666.586127	1049.121653	-580.845690	734.171752	852.462277	-504.476251	219.831198	1195.789804	-340.533982	372.663738	1182.671118	-458.611530	313.270500	1176.948585	-180.005441	401.129633	1133.939418	-434.216027	364.317808	1139.355386	-199.858144	245.033238	1257.702613	-289.184715	274.454071	1266.945126	-369.894249	277.311506	1102.937046	-151.344252	306.375161	1095.773828	-509.671721	354.786463	1046.874445	-130.989196	430.026093	1001.258543	-124.135833	471.849851	932.537418	-93.700257	454.613094	1019.917417	-146.262726	550.147979	802.703323	-117.969070	560.717174	787.822228	-229.224040	513.285878	694.959328	-109.634060	493.492347	611.153901	-133.721325	436.348320	547.490190	-142.647689	514.207840	607.153832	-167.804853	373.375111	453.950631	-160.065462	392.095852	469.837247	-238.922733	296.467934	418.596018	-207.463739	575.166770	361.028945	-175.146846	459.704290	363.506239	-125.822342	499.116443	376.827443	-229.996932	391.579198	971.398252	-501.263141	442.514494	901.119775	-493.658586	472.138476	913.783573	-477.279551	451.979676	812.865722	-494.535569	473.841754	714.219638	-476.046994	461.366477	683.547468	-374.073466	409.204423	629.186926	-500.982840	362.348440	557.372596	-488.736718	283.740985	513.800349	-497.941402	374.308152	546.697011	-450.793677	188.351473	445.963995	-495.278319	197.862193	432.590017	-415.553491	116.531245	471.149064	-453.271127	225.550998	205.359612	-431.202734	162.078625	285.081241	-499.873961	-125.123589	874.116295	-305.852477	37.496321	87.805543	-513.975382	34.082116	83.375572	-113.883289	
754	3.7700	703.731814	1219.272499	-52.979197	770.786709	1255.558043	-401.508754	750.479856	1279.193057	-228.053198	670.372497	1162.317749	-243.624891	570.358978	984.160911	-31.914943	719.795032	858.010219	-106.746564	667.716594	1049.285967	-581.491252	733.819017	852.088221	-504.889642	218.960755	1192.280498	-338.748746	371.602861	1182.583469	-457.995158	313.585963	1172.595110	-178.970607	400.529567	1133.449467	-433.911663	365.000052	1135.688150	-199.490422	243.882315	1255.166393	-286.691466	272.782809	1264.895143	-367.319109	276.714153	1097.822588	-151.471605	307.174397	1095.172911	-510.183628	354.996563	1041.954520	-130.054080	429.013116	995.415848	-124.386626	470.093608	925.670203	-94.955893	453.740028	1014.140717	-146.081979	547.765698	796.420457	-119.100485	558.931949	781.531233	-230.313648	512.484667	688.284656	-109.998792	493.809888	603.947328	-133.714987	437.485820	539.589411	-142.251470	514.614544	599.657838	-168.434069	376.340608	443.927381	-159.730582	394.678026	460.003933	-238.488935	298.800320	409.123199	-207.478312	577.406154	348.618825	-176.035451	462.018193	352.469072	-126.100854	501.905994	366.384715	-229.273516	393.854672	971.651347	-501.048852	445.868880	902.182583	-493.272384	475.149539	915.324372	-476.615286	456.918668	814.125348	-494.444885	480.480332	715.901923	-475.036130	466.828384	685.840270	-370.820613	414.896198	632.356319	-500.112213	366.171016	561.794714	-488.075267	286.490724	520.138911	-496.855443	377.676903	550.706896	-450.101198	188.986846	455.667405	-495.404685	198.665894	441.915207	-415.630945	117.504032	481.767320	-453.286495	223.413070	214.734486	-431.650816	160.454213	295.154070	-500.131100	-125.297824	873.884315	-306.567999	37.507140	87.476051	-514.075408	34.035025	83.362354	-113.928359	
